<?xml version="1.0" encoding="UTF-8" standalone="no"?>
<!-- Created with Inkscape (http://www.inkscape.org/) -->

<svg
   xmlns:dc="http://purl.org/dc/elements/1.1/"
   xmlns:cc="http://creativecommons.org/ns#"
   xmlns:rdf="http://www.w3.org/1999/02/22-rdf-syntax-ns#"
   xmlns:svg="http://www.w3.org/2000/svg"
   xmlns="http://www.w3.org/2000/svg"
   xmlns:sodipodi="http://sodipodi.sourceforge.net/DTD/sodipodi-0.dtd"
   xmlns:inkscape="http://www.inkscape.org/namespaces/inkscape"
   width="700"
   height="700"
   viewBox="0 0 700.00001 700.00001"
   id="svg5647"
   version="1.1"
   inkscape:version="0.91 r13725"
   sodipodi:docname="body.svg">
  <defs
     id="defs5649">
    <linearGradient
       id="linearGradient4146">
      <stop
         style="stop-color:#00bf00;stop-opacity:1;"
         offset="0"
         id="stop4156" />
      <stop
         style="stop-color:#00f700;stop-opacity:0"
         offset="1"
         id="stop4154" />
    </linearGradient>
  </defs>
  <sodipodi:namedview
     id="base"
     pagecolor="#ffffff"
     bordercolor="#666666"
     borderopacity="1.0"
     inkscape:pageopacity="0.0"
     inkscape:pageshadow="2"
     inkscape:zoom="0.98994949"
     inkscape:cx="318.26324"
     inkscape:cy="227.82125"
     inkscape:document-units="px"
     inkscape:current-layer="layer1"
     showgrid="true"
     units="px"
     inkscape:window-width="1920"
     inkscape:window-height="1035"
     inkscape:window-x="0"
     inkscape:window-y="1"
     inkscape:window-maximized="1" />
  <metadata
     id="metadata5652">
    <rdf:RDF>
      <cc:Work
         rdf:about="">
        <dc:format>image/svg+xml</dc:format>
        <dc:type
           rdf:resource="http://purl.org/dc/dcmitype/StillImage" />
        <dc:title></dc:title>
      </cc:Work>
    </rdf:RDF>
  </metadata>
  <g
     inkscape:label="Layer 1"
     inkscape:groupmode="layer"
     id="layer1"
     transform="translate(0,-352.36216)">
    <g
       id="layer1-7"
       inkscape:label="Layer 1"
       transform="matrix(0.46813431,0,0,0.55168408,187.17458,103.98856)">
      <path
         style="fill:#803300;fill-opacity:1;stroke:none;stroke-width:9.17283916;stroke-linecap:round;stroke-linejoin:round;stroke-miterlimit:4;stroke-dasharray:none;stroke-opacity:1"
         d="m 348.58984,27.482422 c -14.00099,0.05505 -27.7981,5.923958 -38.79492,16.054687 -4.84506,-12.594352 -15.2522,-18.41722 -23.71094,-13.265625 -8.77138,5.346781 -12.22178,20.498465 -7.7207,33.904297 1.79343,5.327223 4.68328,9.816897 8.22656,12.78125 -8.78151,17.594496 -25.08533,77.337469 -33.90234,116.958989 -6.59197,29.62275 -13.17319,59.60709 -14.12695,89.93945 -1.69446,53.88834 -8.80099,112.47307 -8.99375,167.49551 -0.83819,20.06174 3.54506,59.71725 3.65,114.57285 0.0479,25.05266 -2.6682,32.18868 3.86523,56.28515 5.06819,18.6924 2.06055,23.24805 2.06055,23.24805 -10.67611,6.91116 -12.39848,9.6404 -6.02149,10.61524 l 66.9668,0 c 8.77028,-1.98394 16.21512,-6.22213 24.85603,-43.03575 l 25.45139,-2.25641 c 0,0 11.68766,-0.48006 27.30919,3.26306 7.37437,31.0285 13.33862,40.07625 21.97128,42.0291 l 66.9668,0 c 6.37699,-0.9749 4.65462,-3.70399 -6.02149,-10.61524 0,0 -3.00764,-4.55565 2.06055,-23.24805 6.53343,-24.09647 3.81733,-31.23249 3.86524,-56.28515 0.11201,-58.55692 4.7547,-101.94416 3.89354,-120.12891 -0.63656,-54.54943 -7.61912,-112.00634 -8.88183,-164.80273 -0.6891,-28.81304 -6.46973,-57.37696 -12.5625,-85.54688 -5.87368,-27.15697 -15.64018,-53.55919 -23.05078,-80.10351 -3.35758,-13.68279 -7.48182,-27.546295 -13.22265,-40.257816 2.66302,-2.856665 4.82787,-6.620027 6.27539,-10.908203 4.50124,-13.405038 1.05179,-28.556389 -7.71875,-33.904297 -7.79213,-4.745647 -17.35931,-0.204165 -22.6211,10.738282 -11.09599,-9.144854 -24.79522,-13.634658 -38.29492,-13.501954 -0.59122,-0.01846 -1.18274,-0.02771 -1.77344,-0.02539 z"
         transform="matrix(2.1361391,0,0,1.8126316,-399.83094,450.20984)"
         id="path4160"
         inkscape:connector-curvature="0"
         sodipodi:nodetypes="sccccsscsscccccccccsscssccccccs" />
      <path
         style="fill:#c87137;fill-opacity:1;stroke:none;stroke-width:8;stroke-linecap:round;stroke-linejoin:round;stroke-miterlimit:4;stroke-dasharray:none;stroke-opacity:1"
         d="m 425.90866,702.36188 a 75.90863,73.837563 0 0 1 -75.52045,73.83659 75.90863,73.837563 0 0 1 -76.29284,-73.08142 75.90863,73.837563 0 0 1 74.74016,-74.58405 75.90863,73.837563 0 0 1 77.05725,72.31861"
         id="path4195"
         inkscape:connector-curvature="0" />
      <path
         style="fill:#000000;fill-opacity:1;stroke:none;stroke-width:8;stroke-linecap:round;stroke-linejoin:round;stroke-miterlimit:4;stroke-dasharray:none;stroke-opacity:1"
         d="m 389.09138,647.36218 a 39.142136,21.060915 0 0 1 -38.94197,21.06064 39.142136,21.060915 0 0 1 -39.34025,-20.84524 39.142136,21.060915 0 0 1 38.53961,-21.27383 39.142136,21.060915 0 0 1 39.73443,20.62766"
         id="path4197"
         inkscape:connector-curvature="0" />
      <path
         style="fill:#000000;fill-opacity:1;stroke:none;stroke-width:8;stroke-linecap:round;stroke-linejoin:round;stroke-miterlimit:4;stroke-dasharray:none;stroke-opacity:1"
         d="m 357.5,702.36218 30,0 c 1.385,0 2.5,1.115 2.5,2.5 0,1.385 -1.115,2.5 -2.5,2.5 l -30,0 c -1.385,0 -2.5,-1.115 -2.5,-2.5 0,-1.385 1.115,-2.5 2.5,-2.5 z"
         id="rect4199"
         inkscape:connector-curvature="0" />
      <path
         style="fill:#000000;fill-opacity:1;stroke:none;stroke-width:8;stroke-linecap:round;stroke-linejoin:round;stroke-miterlimit:4;stroke-dasharray:none;stroke-opacity:1"
         d="m 425.90866,622.36218 a 10,10 0 0 1 -9.94886,9.99987 10,10 0 0 1 -10.05062,-9.89759 10,10 0 0 1 9.84607,-10.1011 10,10 0 0 1 10.15132,9.79428"
         id="path4207"
         inkscape:connector-curvature="0" />
      <path
         inkscape:connector-curvature="0"
         id="rect4155"
         d="m 284.15239,594.45261 -18.36914,18.36719 c -0.15863,0.15862 -0.33239,0.29188 -0.50977,0.41601 0.65824,0.58849 1.52013,0.95508 2.47656,0.95508 l 6.27539,0 0,20.73828 c 0,2.06336 1.66126,3.72461 3.72461,3.72461 l 12.55078,0 c 2.06336,0 3.72461,-1.66125 3.72461,-3.72461 l 0,-20.73828 6.27539,0 c 1.00863,0 1.91852,-0.40004 2.5879,-1.04687 -0.0828,-0.0696 -0.17205,-0.12713 -0.25,-0.20508 l -18.48633,-18.48633 z"
         style="fill:#000000;fill-opacity:1;stroke:#000000;stroke-width:0;stroke-linecap:round;stroke-linejoin:round;stroke-miterlimit:4;stroke-dasharray:none;stroke-opacity:1" />
    </g>
  </g>
</svg>
