<?xml version="1.0" encoding="UTF-8" standalone="no"?>
<!-- Created with Inkscape (http://www.inkscape.org/) -->

<svg
   xmlns:dc="http://purl.org/dc/elements/1.1/"
   xmlns:cc="http://creativecommons.org/ns#"
   xmlns:rdf="http://www.w3.org/1999/02/22-rdf-syntax-ns#"
   xmlns:svg="http://www.w3.org/2000/svg"
   xmlns="http://www.w3.org/2000/svg"
   xmlns:sodipodi="http://sodipodi.sourceforge.net/DTD/sodipodi-0.dtd"
   xmlns:inkscape="http://www.inkscape.org/namespaces/inkscape"
   width="200mm"
   height="200mm"
   viewBox="0 0 708.66142 708.66141"
   id="svg2"
   version="1.1"
   inkscape:version="0.91 r13725"
   sodipodi:docname="head.svg">
  <defs
     id="defs4" />
  <sodipodi:namedview
     id="base"
     pagecolor="#ffffff"
     bordercolor="#666666"
     borderopacity="1.0"
     inkscape:pageopacity="0.0"
     inkscape:pageshadow="2"
     inkscape:zoom="1.4142136"
     inkscape:cx="238.81441"
     inkscape:cy="420.32427"
     inkscape:document-units="px"
     inkscape:current-layer="layer4"
     showgrid="true"
     showguides="false"
     inkscape:guide-bbox="true"
     inkscape:window-width="1920"
     inkscape:window-height="1035"
     inkscape:window-x="0"
     inkscape:window-y="1"
     inkscape:window-maximized="1">
    <inkscape:grid
       type="xygrid"
       id="grid3336" />
    <sodipodi:guide
       position="699.99998,899.99996"
       orientation="0,1"
       id="guide4361" />
  </sodipodi:namedview>
  <metadata
     id="metadata7">
    <rdf:RDF>
      <cc:Work
         rdf:about="">
        <dc:format>image/svg+xml</dc:format>
        <dc:type
           rdf:resource="http://purl.org/dc/dcmitype/StillImage" />
        <dc:title></dc:title>
      </cc:Work>
    </rdf:RDF>
  </metadata>
  <g
     inkscape:groupmode="layer"
     id="layer3"
     inkscape:label="Ears"
     sodipodi:insensitive="true">
    <ellipse
       style="fill:#a05a2c;fill-opacity:1;stroke:#070000;stroke-width:11.44458103;stroke-miterlimit:4;stroke-dasharray:none;stroke-opacity:1"
       id="path4423"
       cx="143.63605"
       cy="214.69696"
       rx="94.27771"
       ry="91.77771" />
    <ellipse
       ry="91.77771"
       rx="94.27771"
       cy="211.16142"
       cx="560"
       id="ellipse4494"
       style="fill:#a05a2c;fill-opacity:1;stroke:#070000;stroke-width:11.44458103;stroke-miterlimit:4;stroke-dasharray:none;stroke-opacity:1" />
  </g>
  <g
     inkscape:label="Head"
     inkscape:groupmode="layer"
     id="layer1"
     transform="translate(0,-343.70079)"
     sodipodi:insensitive="true">
    <a
       id="a4438"
       transform="translate(-1.0332723e-5,-1.0332723e-5)">
      <ellipse
         transform="translate(0,343.70079)"
         ry="209.23715"
         rx="299.82202"
         cy="354.33072"
         cx="354.33072"
         id="path4363"
         style="fill:#a05a2c;stroke:#070000;stroke-width:11.05599976;stroke-miterlimit:4;stroke-dasharray:none;stroke-opacity:1" />
    </a>
    <path
       style="fill:#a05a2c;fill-opacity:1;stroke:#a05a2c;stroke-width:12.2522316;stroke-miterlimit:4;stroke-dasharray:none;stroke-opacity:0"
       d="m 142.28009,478.1395 c -47.739406,0.66017 -90.951595,44.09671 -86.319894,90.19922 3.817201,43.6774 47.385794,80.8437 93.411584,77.23875 41.14711,-1.09645 80.74673,-31.80719 85.81044,-71.76403 5.87008,-36.82216 -17.54018,-75.98503 -54.24391,-88.83552 -12.18843,-4.91527 -25.44971,-7.18235 -38.65822,-6.83842 z"
       id="ellipse4461"
       inkscape:connector-curvature="0" />
    <path
       style="fill:#a05a2c;fill-opacity:1;stroke:#000000;stroke-width:12.14531612;stroke-miterlimit:4;stroke-dasharray:none;stroke-opacity:0"
       d="m 559.0258,470.73287 c -46.76519,-1.84036 -91.47676,39.5746 -90.04868,87.37285 0.14969,41.76738 33.79007,80.59684 75.18329,85.73006 40.52099,6.53199 85.59086,-17.52137 98.44062,-57.8413 12.31439,-35.00573 -0.76751,-77.48341 -31.6005,-98.13456 -15.08968,-10.78073 -33.45175,-16.93046 -51.97473,-17.12705 z"
       id="ellipse4496"
       inkscape:connector-curvature="0" />
  </g>
  <g
     inkscape:groupmode="layer"
     id="layer4"
     inkscape:label="Face">
    <g
       id="g4701">
      <path
         sodipodi:nodetypes="sccccccs"
         inkscape:connector-curvature="0"
         id="path4579"
         d="m 354.33071,328.49598 c -42.48095,2.1e-4 -76.91871,18.58714 -76.91992,41.51563 0.0339,21.66073 30.91574,39.66734 70.92578,41.35547 l 0,71.04883 c 1.66343,16.24553 11.66343,16.24553 11.98828,0 l 0,-71.02735 c 40.02528,-1.68878 70.91264,-19.70797 70.92578,-41.37695 -0.001,-22.92849 -34.43897,-41.51542 -76.91992,-41.51563 z"
         style="fill:#000000;fill-opacity:1;stroke:#000000;stroke-width:15.49903584;stroke-miterlimit:4;stroke-dasharray:none;stroke-opacity:1" />
      <circle
         r="24.56761"
         cy="268.66141"
         cx="445"
         id="path4588"
         style="fill:#000000;fill-opacity:1;stroke:#000000;stroke-width:10.86477947;stroke-miterlimit:4;stroke-dasharray:none;stroke-opacity:1" />
      <path
         inkscape:connector-curvature="0"
         id="circle4590"
         d="m 454.47116,248.41926 c -7.59618,0.71034 -7.71003,15.18561 0.90209,13.97859 8.62765,-0.44077 10.54046,-13.06449 -0.90209,-13.97859 z"
         style="fill:#c8b7b7;fill-opacity:1;stroke:none;stroke-width:11.05599976;stroke-miterlimit:4;stroke-dasharray:none;stroke-opacity:1" />
      <g
         id="g4621"
         transform="matrix(0.98270441,0,0,0.98270441,-162.47642,9.5601608)">
        <circle
           r="25"
           cy="263.66144"
           cx="435"
           id="circle4623"
           style="fill:#000000;fill-opacity:1;stroke:#000000;stroke-width:11.05599976;stroke-miterlimit:4;stroke-dasharray:none;stroke-opacity:1" />
        <path
           inkscape:connector-curvature="0"
           id="path4625"
           d="m 444.63785,243.06302 c -7.72987,0.72284 -7.84573,15.45287 0.91797,14.22461 8.77949,-0.44853 10.72597,-13.29442 -0.91797,-14.22461 z"
           style="fill:#c8b7b7;fill-opacity:1;stroke:none;stroke-width:11.05599976;stroke-miterlimit:4;stroke-dasharray:none;stroke-opacity:1" />
      </g>
      <g
         id="g4697">
        <path
           style="fill:#000000;fill-opacity:1;stroke:none;stroke-width:11.05599976;stroke-miterlimit:4;stroke-dasharray:none;stroke-opacity:1"
           d="m 264.31933,219.98885 -50.42382,50.42383 0,1.36132 21.21484,0 0,45.25391 60,0 0,-45.25391 20.99414,0 -51.78516,-51.78515 z"
           id="rect4667"
           inkscape:connector-curvature="0" />
        <path
           inkscape:connector-curvature="0"
           id="path4695"
           d="m 275.57314,248.77282 c -7.59618,0.71034 -7.71003,15.18561 0.90209,13.97859 8.62765,-0.44077 10.54046,-13.06449 -0.90209,-13.97859 z"
           style="fill:#c8b7b7;fill-opacity:1;stroke:none;stroke-width:11.05599976;stroke-miterlimit:4;stroke-dasharray:none;stroke-opacity:1" />
      </g>
    </g>
  </g>
</svg>
