<?xml version="1.0" encoding="UTF-8" standalone="no"?>
<svg
   xmlns:dc="http://purl.org/dc/elements/1.1/"
   xmlns:cc="http://creativecommons.org/ns#"
   xmlns:rdf="http://www.w3.org/1999/02/22-rdf-syntax-ns#"
   xmlns:svg="http://www.w3.org/2000/svg"
   xmlns="http://www.w3.org/2000/svg"
   version="1.1"
   id="svg2"
   viewBox="0 0 700.00001 700.00001"
   height="700"
   width="700">
  <defs
     id="defs4">
    <linearGradient
       id="linearGradient4146">
      <stop
         style="stop-color:#00bf00;stop-opacity:1;"
         offset="0"
         id="stop4156" />
      <stop
         style="stop-color:#00f700;stop-opacity:0"
         offset="1"
         id="stop4154" />
    </linearGradient>
  </defs>
  <metadata
     id="metadata7">
    <rdf:RDF>
      <cc:Work
         rdf:about="">
        <dc:format>image/svg+xml</dc:format>
        <dc:type
           rdf:resource="http://purl.org/dc/dcmitype/StillImage" />
        <dc:title></dc:title>
      </cc:Work>
    </rdf:RDF>
  </metadata>
  <g
     transform="translate(0,-352.36216)"
     id="layer1">
    <path
       transform="translate(0,352.36216)"
       id="path4160"
       d="M 344.80664 147.66602 C 314.89834 147.7658 285.42248 158.40011 261.93164 176.76367 A 47.861424 37.841003 77.762369 0 0 211.2832 152.71875 A 47.861424 37.841003 77.762369 0 0 194.79297 214.17383 A 47.861424 37.841003 77.762369 0 0 212.35938 237.33984 C 193.6001 269.23283 180.05428 304.36491 165.91602 338.4043 C 142.51875 396.93453 122.08062 456.81034 108.14258 518.34375 C 113.87614 529.20608 122.86969 538.49207 130.91211 547.89062 C 186.56678 609.46983 269.18443 645.10837 352.10547 644.15039 C 427.3516 644.12509 501.79919 613.67248 555.82812 561.36914 C 566.90683 550.3477 578.2896 538.92028 586.75586 525.91797 C 578.88412 500.63518 569.05624 475.54473 560.36914 450.35547 C 543.57091 402.55169 525.87499 355.03696 510.04492 306.92188 C 502.87174 282.11682 494.09577 256.96171 481.83008 233.91797 A 37.841003 47.861424 12.237631 0 0 495.20703 214.17383 A 37.841003 47.861424 12.237631 0 0 478.7168 152.71875 A 37.841003 47.861424 12.237631 0 0 430.39844 172.16992 C 406.69691 155.59644 377.42862 147.47041 348.59375 147.71094 C 347.33084 147.67747 346.06846 147.66181 344.80664 147.66602 z "
       style="fill:#542809;fill-opacity:1;stroke:none;stroke-width:9.17283916;stroke-linecap:round;stroke-linejoin:round;stroke-miterlimit:4;stroke-dasharray:none;stroke-opacity:1" />
    <path
       d="m 425.90866,702.36188 a 75.90863,73.837563 0 0 1 -75.52045,73.83659 75.90863,73.837563 0 0 1 -76.29284,-73.08142 75.90863,73.837563 0 0 1 74.74016,-74.58405 75.90863,73.837563 0 0 1 77.05725,72.31861"
       id="path4195"
       style="fill:#c87137;fill-opacity:1;stroke:none;stroke-width:8;stroke-linecap:round;stroke-linejoin:round;stroke-miterlimit:4;stroke-dasharray:none;stroke-opacity:1" />
    <path
       d="m 389.09138,647.36218 a 39.142136,21.060915 0 0 1 -38.94197,21.06064 39.142136,21.060915 0 0 1 -39.34025,-20.84524 39.142136,21.060915 0 0 1 38.53961,-21.27383 39.142136,21.060915 0 0 1 39.73443,20.62766"
       id="path4197"
       style="fill:#000000;fill-opacity:1;stroke:none;stroke-width:8;stroke-linecap:round;stroke-linejoin:round;stroke-miterlimit:4;stroke-dasharray:none;stroke-opacity:1" />
    <rect
       ry="2.5"
       y="702.36218"
       x="355"
       height="5"
       width="35"
       id="rect4199"
       style="fill:#000000;fill-opacity:1;stroke:none;stroke-width:8;stroke-linecap:round;stroke-linejoin:round;stroke-miterlimit:4;stroke-dasharray:none;stroke-opacity:1" />
    <path
       style="fill:#000000;fill-opacity:1;stroke:none;stroke-width:8;stroke-linecap:round;stroke-linejoin:round;stroke-miterlimit:4;stroke-dasharray:none;stroke-opacity:1"
       id="path4207"
       d="m 425.90866,622.54077 a 10,10 0 0 1 -9.94886,9.99987 10,10 0 0 1 -10.05062,-9.89759 10,10 0 0 1 9.84607,-10.1011 10,10 0 0 1 10.15132,9.79428" />
    <path
       id="rect4284"
       d="m 278.50207,605.0232 -15.40323,16.10546 7.23357,0 0,18.92969 16.33933,0 0,-18.92969 7.23568,0 -15.40535,-16.10546 z"
       style="fill:#000000;fill-opacity:1;stroke:none;stroke-width:2;stroke-linecap:round;stroke-linejoin:round;stroke-miterlimit:4;stroke-dasharray:none;stroke-opacity:1" />
  </g>
</svg>
